<svg id="date-alt-calender" xmlns="http://www.w3.org/2000/svg" viewBox="0 0 173.34 173.34"><defs><style>.cls-1,.cls-3{fill:#3dc2ec;}.cls-1,.cls-2,.cls-3{stroke:#000;stroke-miterlimit:34.67;}.cls-1,.cls-2{stroke-width:0px;}.cls-3{font-size:57.25px;stroke-width:0px;font-family:BubbleGum;}</style></defs><rect id="secondary" class="cls-1" y="8.67" width="173.33" height="147.33" rx="17.33"/><circle id="primary" class="cls-2" cx="86.67" cy="112.67" r="60.67"/><path id="primary-2" class="cls-2" d="M173.33,26H34.67A17.33,17.33,0,0,0,17.33,43.33V78H190.67V43.33A17.33,17.33,0,0,0,173.33,26Z" transform="translate(-17.33 -17.33)"/><path id="secondary-2" class="cls-1" d="M138.67,52A8.67,8.67,0,0,1,130,43.33V26a8.67,8.67,0,1,1,17.33,0V43.33A8.67,8.67,0,0,1,138.67,52ZM78,43.33V26a8.67,8.67,0,1,0-17.33,0V43.33a8.67,8.67,0,1,0,17.33,0Zm65.76,103.31,7.11-28.41a7.06,7.06,0,0,0-7.11-8.8h-14.2a7.1,7.1,0,0,0,0,14.2h5.11l-4.9,19.61a7.1,7.1,0,0,0,4.94,8.74l.25.06a7.1,7.1,0,0,0,8.59-5.18Zm-61.79,0,7.11-28.41a7.06,7.06,0,0,0-7.11-8.8H67.77a7.1,7.1,0,0,0,0,14.2h5.11L68,143.24A7.1,7.1,0,0,0,72.92,152l.25.06a7.1,7.1,0,0,0,8.59-5.18Z" transform="translate(-17.33 -17.33)"/><text class="cls-3" transform="translate(73.96 136.92)">/</text></svg>