<?xml version="1.0" ?>
<!DOCTYPE svg  PUBLIC '-//W3C//DTD SVG 1.1//EN'  'http://www.w3.org/Graphics/SVG/1.1/DTD/svg11.dtd'>
<!-- Uploaded to: SVG Repo, www.svgrepo.com, Generator: SVG Repo Mixer Tools -->
<svg fill="#000000" width="800px" height="800px" viewBox="0 0 250 250" style="fill-rule:evenodd;clip-rule:evenodd;stroke-linecap:round;stroke-linejoin:round;stroke-miterlimit:1.5;" version="1.1" xml:space="preserve" xmlns="http://www.w3.org/2000/svg" xmlns:serif="http://www.serif.com/" xmlns:xlink="http://www.w3.org/1999/xlink">
<g transform="matrix(0.79807,0.79807,-0.79807,0.79807,137.201,-64.6017)">
<path d="M110.178,110.041C106.262,110.827 102.381,108.387 101.421,104.471C93.836,77.511 88.849,49.779 84.137,21.964C83.442,17.741 82.534,0.731 86.652,0.31C88.631,0.107 91.145,5.6 92.13,9.62L110.178,78.665L104.365,100.902C103.38,104.922 105.845,108.986 109.865,109.971C109.969,109.997 110.073,110.02 110.178,110.041Z" style="fill:rgb(191,191,191);"/>
</g>
<g transform="matrix(0.79807,0.79807,-0.79807,0.79807,137.201,-64.6017)">
<path d="M106.178,68.665L110.178,78.665L104.709,99.587C101.387,98.175 99.479,94.521 100.365,90.902L106.178,68.665Z" style="fill:rgb(140,140,140);"/>
</g>
<g transform="matrix(0.5035,0.305351,-0.73628,1.21407,165.34,-22.7498)">
<path d="M89.41,9.926C89.41,6.635 87.234,1.919 83.458,1.701C75.6,1.248 69.532,14.552 68.9,17.944C64.987,40.31 61.625,62.664 63.45,84.913C63.45,88.203 69.891,90.875 77.825,90.875C85.759,90.875 92.2,88.203 92.2,84.913L89.41,9.926Z" style="fill:none;stroke:black;stroke-width:6.9px;"/>
</g>
<g transform="matrix(0.647362,0.924529,-0.924529,0.647362,165.486,-57.0901)">
<path d="M99.764,107.736C99.764,107.736 100.291,104.354 100.291,101.5C100.291,95.636 102.847,90.875 105.996,90.875C109.144,90.875 111.7,95.636 111.7,101.5C111.7,106.444 108.383,112.293 108.383,112.293L102.773,122.906L106.2,122.906L106.2,129.041C101.325,129.857 100.533,131.652 100.2,136.801L92.2,136.801L92.2,122.906L92.227,121.992L99.764,107.736Z" style="fill:rgb(191,191,191);"/>
</g>
<g transform="matrix(0.79807,0.79807,-0.79807,0.79807,137.201,-64.6017)">
<path d="M100.199,112.682L101.967,110.409C101.967,110.409 103.074,107.169 103.569,104.358C104.588,98.583 109.664,116.393 109.664,116.393L104.588,122.922C103.257,121.036 101.129,117.616 100.551,114.339C100.441,113.712 100.322,113.156 100.199,112.682Z" style="fill:rgb(140,140,140);"/>
</g>
<g transform="matrix(0.647362,0.924529,-0.924529,0.647362,165.486,-57.0901)">
<path d="M99.764,107.736C99.764,107.736 100.291,104.354 100.291,101.5C100.291,95.636 102.847,90.875 105.996,90.875C109.144,90.875 111.7,95.636 111.7,101.5C111.7,106.444 108.383,112.293 108.383,112.293L102.773,122.906L106.2,122.906L106.2,129.041C101.325,129.857 100.533,131.652 100.2,136.801L92.2,136.801L92.2,122.906L92.227,121.992L99.764,107.736Z" style="fill:none;stroke:black;stroke-width:6.65px;"/>
</g>
<g transform="matrix(0.140027,0.199979,-0.188799,0.132199,126.993,-29.8186)">
<g transform="matrix(0.684389,0,0,0.684389,157.806,305.723)">
<path d="M472.035,408.836C487.168,584.477 500,768.478 500,887.413C500,929.482 465.845,963.636 423.776,963.636C381.707,963.636 347.552,929.482 347.552,887.413C347.552,768.478 360.384,584.477 375.518,408.836L472.035,408.836Z" style="fill:rgb(15,169,84);"/>
</g>
<g transform="matrix(2.11841,-2.24385,2.11841,2.24385,-83.5212,457.202)">
<path d="M98.242,155.431L104.615,161.804C80.273,191.034 54.285,221.168 36.147,239.306C29.732,245.721 19.006,245.413 12.21,238.617C6.811,233.217 5.507,225.336 8.418,219.107C9.3,221.096 10.565,222.972 12.21,224.617C19.006,231.413 29.732,231.721 36.147,225.306C52.711,208.742 75.821,182.175 98.242,155.431Z" style="fill:rgb(14,124,63);"/>
</g>
<g transform="matrix(0.684389,0,0,0.684389,157.806,305.723)">
<path d="M472.035,408.836C487.168,584.477 500,768.478 500,887.413C500,929.482 465.845,963.636 423.776,963.636C381.707,963.636 347.552,929.482 347.552,887.413C347.552,768.478 360.384,584.477 375.518,408.836L472.035,408.836Z" style="fill:none;stroke:black;stroke-width:46.16px;"/>
</g>
<g transform="matrix(0.993384,0,0,0.684389,-323.255,282.751)">
<path d="M725.111,442.403C730.144,382.402 735.518,322.859 740.822,266.624L811.625,266.624C816.929,322.859 822.303,382.402 827.336,442.403L725.111,442.403Z" style="fill:rgb(64,64,64);"/>
</g>
<g transform="matrix(2.11841,-2.24385,2.11841,2.24385,-83.5212,457.202)">
<path d="M123.981,127.557L131.926,135.502C124.594,145.322 116.773,155.662 108.803,165.992L92.311,149.5L100.412,156.384C106.133,148.969 116.1,137.225 123.981,127.557Z" style="fill:rgb(51,51,51);"/>
</g>
<g transform="matrix(0.993384,0,0,0.684389,-323.255,282.751)">
<path d="M725.111,442.403C730.144,382.402 735.518,322.859 740.822,266.624L811.625,266.624C816.929,322.859 822.303,382.402 827.336,442.403L725.111,442.403Z" style="fill:none;stroke:black;stroke-width:36.66px;"/>
</g>
</g>
<g transform="matrix(-0.305351,-0.5035,-1.21407,0.73628,271.208,83.1185)">
<path d="M89.41,9.926C89.41,6.635 87.234,1.919 83.458,1.701C75.6,1.248 69.532,14.552 68.9,17.944C64.987,40.31 61.625,62.664 63.45,84.913C63.45,88.203 69.891,90.875 77.825,90.875C85.759,90.875 92.2,88.203 92.2,84.913L89.41,9.926Z" style="fill:rgb(191,191,191);stroke:black;stroke-width:6.9px;"/>
</g>
<g transform="matrix(-0.924529,-0.647362,-0.647362,0.924529,305.549,82.9727)">
<path d="M99.764,107.736C99.764,107.736 100.291,104.354 100.291,101.5C100.291,95.636 102.847,90.875 105.996,90.875C109.144,90.875 111.7,95.636 111.7,101.5C111.7,106.444 108.383,112.293 108.383,112.293L102.773,122.906L106.2,122.906L106.2,129.041C101.325,129.857 100.533,131.652 100.2,136.801L92.2,136.801L92.2,122.906L92.227,121.992L99.764,107.736Z" style="fill:rgb(191,191,191);stroke:black;stroke-width:6.65px;"/>
</g>
<g transform="matrix(0.199979,0.140027,-0.132199,0.188799,99.1469,-2.79708)">
<g transform="matrix(0.684389,0,0,0.684389,157.806,305.723)">
<path d="M472.035,408.836C487.168,584.477 500,768.478 500,887.413C500,929.482 465.845,963.636 423.776,963.636C381.707,963.636 347.552,929.482 347.552,887.413C347.552,768.478 360.384,584.477 375.518,408.836L472.035,408.836Z" style="fill:rgb(15,169,84);"/>
</g>
<g transform="matrix(2.11841,-2.24385,2.11841,2.24385,-83.5212,457.202)">
<path d="M98.242,155.431L104.615,161.804C80.273,191.034 54.285,221.168 36.147,239.306C29.732,245.721 19.006,245.413 12.21,238.617C6.811,233.217 5.507,225.336 8.418,219.107C9.3,221.096 10.565,222.972 12.21,224.617C19.006,231.413 29.732,231.721 36.147,225.306C52.711,208.742 75.821,182.175 98.242,155.431Z" style="fill:rgb(14,124,63);"/>
</g>
<g transform="matrix(0.684389,0,0,0.684389,157.806,305.723)">
<path d="M472.035,408.836C487.168,584.477 500,768.478 500,887.413C500,929.482 465.845,963.636 423.776,963.636C381.707,963.636 347.552,929.482 347.552,887.413C347.552,768.478 360.384,584.477 375.518,408.836L472.035,408.836Z" style="fill:none;stroke:black;stroke-width:46.16px;"/>
</g>
<g transform="matrix(0.993384,0,0,0.684389,-323.255,282.751)">
<path d="M725.111,442.403C730.144,382.402 735.518,322.859 740.822,266.624L811.625,266.624C816.929,322.859 822.303,382.402 827.336,442.403L725.111,442.403Z" style="fill:rgb(64,64,64);"/>
</g>
<g transform="matrix(2.11841,-2.24385,2.11841,2.24385,-83.5212,457.202)">
<path d="M123.981,127.557L131.926,135.502C124.594,145.322 116.773,155.662 108.803,165.992L92.311,149.5L100.412,156.384C106.133,148.969 116.1,137.225 123.981,127.557Z" style="fill:rgb(51,51,51);"/>
</g>
<g transform="matrix(0.993384,0,0,0.684389,-323.255,282.751)">
<path d="M725.111,442.403C730.144,382.402 735.518,322.859 740.822,266.624L811.625,266.624C816.929,322.859 822.303,382.402 827.336,442.403L725.111,442.403Z" style="fill:none;stroke:black;stroke-width:36.66px;"/>
</g>
</g>
</svg>