<!DOCTYPE svg PUBLIC "-//W3C//DTD SVG 1.1//EN" "http://www.w3.org/Graphics/SVG/1.1/DTD/svg11.dtd">
<!-- Uploaded to: SVG Repo, www.svgrepo.com, Transformed by: SVG Repo Mixer Tools -->
<svg width="800px" height="800px" viewBox="0 0 24 24" id="Flat_Color" data-name="Flat Color" xmlns="http://www.w3.org/2000/svg" fill="#000000">
<g id="SVGRepo_bgCarrier" stroke-width="0"/>
<g id="SVGRepo_tracerCarrier" stroke-linecap="round" stroke-linejoin="round"/>
<g id="SVGRepo_iconCarrier">
<path id="secondary" d="M19,22a1,1,0,0,1-1-1V15a1,1,0,0,1,2,0v6A1,1,0,0,1,19,22Z" style="fill:#3dc2ec"/>
<path id="primary" d="M14,8.5a4.5,4.5,0,0,1-2.26,3.9,4,4,0,0,1-7.48,0,4.5,4.5,0,0,1,0-7.8,4,4,0,0,1,7.48,0A4.5,4.5,0,0,1,14,8.5ZM19,7a3,3,0,0,0-3,3v3a3,3,0,0,0,6,0V10A3,3,0,0,0,19,7Z" style="fill:#000000"/>
<path id="secondary-2" data-name="secondary" d="M8,22a1,1,0,0,1-1-1V9A1,1,0,0,1,9,9V21A1,1,0,0,1,8,22Z" style="fill:#3dc2ec"/>
<path id="primary-2" data-name="primary" d="M21,22H3a1,1,0,0,1,0-2H21a1,1,0,0,1,0,2Z" style="fill:#000000"/>
</g>
</svg>