<?xml version="1.0" encoding="utf-8"?>
<!-- Generator: Adobe Illustrator 26.0.1, SVG Export Plug-In . SVG Version: 6.00 Build 0)  -->
<svg version="1.1" id="Layer_1" xmlns="http://www.w3.org/2000/svg" xmlns:xlink="http://www.w3.org/1999/xlink" x="0px" y="0px"
	 viewBox="0 0 240.94 155.91" style="enable-background:new 0 0 240.94 155.91;" xml:space="preserve">
<style type="text/css">
	.st0{fill:#4B70F5;}
	.st1{fill:#3DC2EC;}
</style>
<g>
	<path class="st0" d="M147.18,91.52c-0.59,1.08-1.26,2.14-2.04,3.15c-11.36,14.76-34.12,15.52-47.58,3.11
		c-5.49-5.06-7.15-12.78-12.12-18.2c-4.26-4.64-10.18-3.81-12.75,1.93c-4.64,10.39,2.87,21.38,10.34,28.23
		c11.75,10.76,29.5,15.08,44.88,10.77c15-4.2,27.41-17.76,31.44-32.64c1.12-4.15,1.38-8.99-1.33-12.33
		c-0.33-0.41-0.72-0.79-1.21-0.96c-1.41-0.47-2.67,1.01-3.38,2.32C150.87,81.66,149.72,86.86,147.18,91.52z"/>
	<path class="st1" d="M126.47,86.27c-0.9,0.33-1.84,0.56-2.79,0.7c-4.11,0.6-9.08-0.01-12.05-2.94c-1.33-1.32-2.16-2.99-3.07-4.58
		c-1.16-2.03-2.64-4.07-5.16-4.77c-1.37-0.38-2.99-0.19-4.02,0.73c-1.54,1.36-1.26,3.71-0.42,5.52
		c3.39,7.27,12.32,13.07,20.89,13.49c5.09,0.25,10.16-1.51,13.93-4.63c2.66-2.19,8.31-8.88,5.62-12.45
		c-0.48-0.64-1.43-0.88-2.26-0.73s-1.55,0.62-2.15,1.17c-1.96,1.77-2.87,4.33-4.75,6.17C129.2,84.98,127.89,85.75,126.47,86.27z"/>
	<circle class="st1" cx="89.08" cy="54.37" r="10.04"/>
	<circle class="st1" cx="150.08" cy="63.82" r="5.09"/>
</g>
</svg>
