<svg id="visual" viewBox="0 0 900 600" width="900" height="600" xmlns="http://www.w3.org/2000/svg" xmlns:xlink="http://www.w3.org/1999/xlink" version="1.1"><rect x="0" y="0" width="900" height="600" fill="#f1f1f1"></rect><defs><linearGradient id="grad1_0" x1="33.3%" y1="0%" x2="100%" y2="100%"><stop offset="20%" stop-color="#f1f1f1" stop-opacity="1"></stop><stop offset="80%" stop-color="#f1f1f1" stop-opacity="1"></stop></linearGradient></defs><defs><linearGradient id="grad2_0" x1="0%" y1="0%" x2="66.7%" y2="100%"><stop offset="20%" stop-color="#f1f1f1" stop-opacity="1"></stop><stop offset="80%" stop-color="#f1f1f1" stop-opacity="1"></stop></linearGradient></defs><g transform="translate(900, 0)"><path d="M0 405.6C-51.2 396.4 -102.4 387.2 -153.1 369.6C-203.8 351.9 -254 325.9 -286.8 286.8C-319.7 247.8 -335.1 195.8 -352 145.8C-368.9 95.8 -387.3 47.9 -405.6 0L0 0Z" fill="#0F67B1"></path></g><g transform="translate(0, 600)"><path d="M0 -405.6C58.6 -401.9 117.2 -398.2 151.2 -364.9C185.1 -331.7 194.3 -268.9 233.3 -233.3C272.3 -197.8 341.1 -189.6 374.7 -155.2C408.4 -120.9 407 -60.4 405.6 0L0 0Z" fill="#0F67B1"></path></g></svg>